<svg xmlns="http://www.w3.org/2000/svg" width="960" height="960" viewBox="0 0 960 960">
<g>
<path d="M 797.55 640.57 L 795.95 643.00 L 480.73 642.97 C268.47,642.95 164.93,642.61 163.75,641.92 C161.96,640.88 161.52,638.41 162.61,635.58 C163.14,634.19 166.77,634.00 193.05,634.00 C209.46,634.00 223.11,633.63 223.38,633.19 C223.66,632.74 220.88,630.89 217.19,629.08 C193.16,617.27 177.95,597.19 172.44,570.03 C169.33,554.67 171.98,534.19 179.02,519.14 C180.66,515.64 182.00,512.60 182.00,512.39 C182.00,512.17 178.92,512.00 175.15,512.00 C167.96,512.00 165.00,510.43 165.00,506.63 C165.00,502.22 175.38,486.07 184.67,476.04 C204.51,454.61 231.63,443.00 261.84,443.00 L 273.50 443.00 L 273.51 431.75 C273.52,416.29 275.40,411.38 290.18,388.22 C316.67,346.73 333.76,318.74 332.97,318.15 C332.71,317.96 328.23,317.73 323.00,317.65 C312.21,317.48 308.15,315.83 304.25,310.05 C302.09,306.84 302.00,305.83 302.00,285.72 C302.00,266.43 302.16,264.47 304.02,261.47 C307.32,256.12 311.97,254.47 323.00,254.70 C335.17,254.96 348.38,258.29 361.43,264.39 C366.87,266.93 371.41,268.90 371.52,268.76 C371.64,268.62 372.26,264.23 372.91,259.00 C375.24,240.21 379.87,230.17 387.85,226.57 L 392.00 224.70 L 392.00 217.78 C392.00,209.60 393.02,207.31 397.50,205.44 C401.58,203.73 406.19,205.01 407.78,208.30 C408.37,209.51 409.14,218.22 409.48,227.65 C410.00,241.72 409.84,245.44 408.60,248.40 C406.04,254.53 399.42,255.51 394.41,250.50 C392.39,248.49 392.00,247.10 392.00,242.05 C392.00,235.54 391.22,234.77 388.06,238.16 C385.36,241.07 384.54,244.06 381.90,260.60 L 379.65 274.69 L 385.24 280.28 C388.31,283.35 391.08,286.69 391.40,287.69 C391.76,288.83 394.51,290.42 398.74,291.93 C407.56,295.09 411.00,298.47 411.00,303.97 C411.00,312.64 404.06,315.21 393.40,310.50 C386.73,307.55 383.18,307.31 382.31,309.75 C381.97,310.71 379.61,316.23 377.06,322.00 C372.71,331.87 372.51,332.67 373.84,335.39 C375.36,338.52 374.86,340.98 368.59,361.00 C367.12,365.67 363.82,377.38 361.25,387.00 L 356.59 404.50 L 356.57 425.00 C356.56,444.24 356.73,446.18 359.38,456.50 C365.44,480.17 373.92,497.78 384.70,509.07 C392.46,517.20 398.01,520.75 407.50,523.66 C412.59,525.22 416.75,525.48 435.00,525.39 C458.29,525.26 464.08,524.33 472.84,519.30 C482.48,513.77 489.51,502.27 492.57,487.04 C495.59,471.97 493.52,457.58 485.87,440.59 C482.06,432.13 477.80,419.89 476.53,413.75 C476.00,411.17 475.64,411.00 470.68,411.00 C467.78,411.00 464.86,410.46 464.20,409.80 C462.51,408.11 462.71,398.34 464.57,392.09 C466.47,385.66 472.29,379.02 478.83,375.80 C483.40,373.55 484.36,373.49 524.50,372.89 C569.47,372.22 569.79,372.18 597.50,365.02 C617.50,359.85 620.64,359.48 624.98,361.71 C631.76,365.20 634.52,372.73 635.86,391.46 L 636.50 400.43 L 646.50 402.06 C652.00,402.96 657.50,404.02 658.72,404.41 C660.45,404.96 662.41,404.00 667.62,400.06 L 674.30 395.00 L 665.40 394.99 C654.44,394.99 650.00,393.82 645.32,389.70 C643.86,388.43 642.70,387.45 641.77,386.28 C638.04,381.62 638.04,373.99 638.02,332.53 L 638.02 329.41 L 638.00 280.31 L 640.33 275.91 C641.61,273.48 644.57,270.15 646.91,268.50 L 651.17 265.50 L 714.34 265.20 C749.08,265.04 778.97,265.18 780.77,265.50 C785.03,266.28 790.84,271.44 793.14,276.49 C794.82,280.20 794.96,284.26 794.96,330.00 L 794.96 331.69 C794.96,375.31 794.96,382.90 791.22,387.36 C790.38,388.36 789.36,389.20 788.11,390.25 C783.47,394.16 779.14,394.98 763.00,395.03 L 748.50 395.08 L 733.03 407.45 C724.52,414.25 717.41,420.27 717.23,420.82 C717.04,421.37 719.73,420.90 723.20,419.78 C728.32,418.12 732.09,417.74 743.36,417.76 C758.87,417.78 760.83,418.46 764.30,425.07 C765.84,428.02 766.05,430.64 765.80,443.68 C765.53,457.18 765.27,459.16 763.44,461.62 C759.90,466.36 756.41,468.30 750.59,468.78 L 745.10 469.24 L 748.13 474.37 C756.20,488.01 766.15,514.02 767.50,525.02 C768.49,533.14 766.81,534.35 753.65,535.00 L 743.50 535.50 L 744.00 539.50 C745.23,549.32 744.48,568.55 742.60,575.50 C738.74,589.82 731.64,602.21 721.17,612.91 C714.98,619.23 702.84,627.63 695.57,630.62 C693.06,631.66 691.01,632.84 691.00,633.25 C691.00,633.66 714.83,634.00 743.96,634.00 C796.48,634.00 796.94,634.02 798.04,636.07 C798.90,637.67 798.79,638.67 797.55,640.57 ZM 384.20 570.00 C391.09,571.82 395.08,571.91 455.50,571.71 L 519.50 571.50 L 526.91 568.03 C530.98,566.12 536.38,562.90 538.91,560.87 C543.38,557.28 543.50,557.03 543.50,551.59 L 543.50 546.01 L 533.77 546.00 C533.42,546.00 533.08,546.00 532.75,546.00 C527.85,546.01 524.93,546.01 523.23,544.57 C520.71,542.44 520.86,537.16 521.22,524.08 C521.24,523.49 521.26,522.87 521.28,522.24 C521.99,496.37 525.43,483.73 536.49,466.45 C550.60,444.38 573.99,429.39 601.91,424.51 C619.56,421.42 643.77,422.89 661.00,428.09 C676.77,432.85 700.20,446.84 709.33,456.95 C713.37,461.42 713.78,463.08 711.43,465.43 C708.72,468.14 706.01,467.22 701.34,462.03 C691.71,451.32 671.06,439.90 653.00,435.30 C643.52,432.89 640.70,432.63 624.00,432.60 C606.96,432.56 604.74,432.77 595.82,435.24 C590.50,436.71 583.28,439.21 579.78,440.80 C552.37,453.23 534.85,477.53 530.95,508.52 C529.79,517.73 530.06,535.39 531.38,536.71 C531.72,537.06 546.29,536.58 563.75,535.65 C581.21,534.71 608.33,533.28 624.00,532.46 C639.67,531.63 664.20,530.31 678.50,529.52 C692.80,528.72 715.08,527.59 728.00,527.00 C740.92,526.41 752.99,525.69 754.82,525.41 C757.96,524.91 758.10,524.71 757.45,521.69 C755.64,513.17 749.21,496.29 743.66,485.52 C724.77,448.81 693.85,423.11 657.00,413.48 L 646.50 410.73 L 566.02 410.93 C521.75,411.04 485.33,411.34 485.08,411.59 C484.26,412.40 489.13,426.21 494.60,438.58 C505.73,463.77 505.65,486.57 494.36,508.18 C489.32,517.81 482.82,524.24 473.75,528.54 C463.60,533.35 458.76,534.00 433.42,534.00 C412.42,534.00 410.64,533.85 403.22,531.51 C383.01,525.13 368.19,508.62 357.60,480.71 C349.34,458.94 346.45,441.76 347.31,419.59 C348.09,399.34 350.79,386.87 361.59,353.60 C364.07,345.96 365.86,339.07 365.56,338.30 C364.81,336.33 353.75,331.35 345.73,329.37 C342.01,328.45 338.83,327.88 338.67,328.10 C338.03,328.96 327.24,346.07 320.44,357.00 C316.51,363.33 307.13,378.40 299.60,390.49 C291.62,403.31 285.21,414.78 284.22,417.99 C281.62,426.42 281.95,440.79 284.93,449.00 C288.65,459.25 301.60,482.81 311.13,496.68 C312.71,498.98 314.00,501.14 314.00,501.48 C314.00,502.43 329.50,523.30 338.28,534.17 C348.83,547.24 363.15,560.75 370.73,564.78 C374.13,566.59 380.19,568.93 384.20,570.00 ZM 285.00 633.25 C285.00,634.18 629.41,634.26 630.33,633.33 C630.70,632.97 628.08,631.44 624.52,629.94 C604.28,621.40 586.48,600.81 580.05,578.52 C578.10,571.74 579.35,572.36 562.17,569.64 C556.72,568.78 552.09,567.48 551.02,566.52 C549.30,564.97 548.90,565.09 544.43,568.50 C538.13,573.31 529.82,577.44 521.92,579.68 C516.02,581.35 510.46,581.50 453.50,581.50 C392.12,581.50 391.42,581.48 383.72,579.24 C372.65,576.04 364.26,571.67 355.12,564.36 C350.75,560.86 346.91,558.00 346.59,558.00 C346.26,558.00 346.00,559.37 346.00,561.05 C346.00,564.54 342.16,569.00 339.15,569.00 C337.58,569.00 336.88,570.36 335.44,576.24 C334.46,580.23 331.45,587.91 328.75,593.31 C324.70,601.39 322.30,604.68 315.17,611.89 C306.42,620.73 297.08,627.54 289.26,630.75 C286.92,631.71 285.01,632.84 285.00,633.25 ZM 650.40 382.60 L 653.80 386.00 L 715.45 386.00 L 720.28 386.00 C772.99,386.00 780.27,386.00 783.08,382.46 C783.62,381.79 783.99,380.99 784.48,380.03 C785.78,377.53 786.00,369.98 786.00,328.47 L 786.00 279.85 L 783.08 276.92 C780.17,274.02 780.09,274.00 768.08,274.00 L 756.00 274.00 L 756.00 291.67 L 756.00 292.41 C756.00,305.07 756.00,309.95 753.63,311.82 C752.14,313.00 749.72,313.00 745.78,313.00 L 745.42 313.00 C745.19,313.00 744.96,313.00 744.74,313.00 C740.99,313.00 738.68,313.01 737.26,311.89 C735.00,310.09 735.00,305.43 735.00,293.30 L 735.00 291.93 L 735.00 274.00 L 716.50 274.00 C704.92,274.00 697.95,274.37 697.88,275.00 C697.81,275.55 697.64,276.45 697.50,277.00 C697.36,277.55 697.19,285.17 697.12,293.93 C697.03,305.47 697.04,310.02 694.81,311.82 C693.36,313.00 690.95,313.00 686.94,313.00 L 686.63 313.00 C682.34,313.00 678.91,312.51 678.20,311.80 C677.35,310.95 677.00,305.20 677.00,292.30 L 677.00 274.00 L 653.80 274.00 L 650.40 277.40 L 647.00 280.80 L 647.00 379.20 ZM 240.94 604.66 C259.35,610.11 276.79,605.46 291.20,591.27 C303.64,579.03 308.86,560.55 304.83,543.06 C303.82,538.71 302.92,537.41 298.58,534.08 C293.15,529.92 282.00,523.01 280.73,523.00 C280.01,523.00 275.69,531.69 265.96,552.67 C263.87,557.16 261.23,561.77 260.08,562.92 C258.01,564.99 252.96,565.69 249.54,564.38 C247.25,563.50 244.78,558.27 245.53,555.90 C245.88,554.81 250.21,545.54 255.15,535.30 C262.03,521.05 263.82,516.51 262.82,515.88 C260.00,514.12 247.01,511.82 236.86,511.28 L 226.22 510.71 L 219.25 517.68 C205.44,531.49 199.98,549.97 204.53,567.45 C209.31,585.79 222.39,599.16 240.94,604.66 ZM 331.48 552.89 C334.22,555.15 336.76,557.00 337.13,557.00 C337.49,557.00 337.97,555.12 338.19,552.82 C338.56,548.94 338.17,548.15 332.95,542.07 C314.84,520.96 289.13,481.41 279.98,460.61 C276.92,453.65 276.36,452.97 273.18,452.37 C267.24,451.26 244.98,452.77 237.50,454.80 C213.07,461.43 192.77,476.19 180.09,496.55 C178.22,499.56 176.93,502.27 177.23,502.57 C177.53,502.87 187.67,502.63 199.77,502.03 C240.37,500.04 263.03,503.60 285.68,515.51 C296.30,521.09 308.44,530.38 318.48,540.61 C322.89,545.11 328.74,550.63 331.48,552.89 ZM 659.00 743.00 L 659.00 764.00 L 640.00 764.00 L 640.00 688.00 L 657.25 688.02 C684.80,688.05 692.28,689.84 699.31,698.05 C703.60,703.07 705.44,709.93 704.76,718.40 C704.16,725.92 701.35,731.69 696.10,736.18 L 692.14 739.57 L 699.55 751.04 C703.63,757.34 706.97,762.84 706.98,763.25 C706.99,763.66 702.11,764.00 696.14,764.00 L 685.29 764.00 L 679.89 753.51 L 674.50 743.02 L 666.75 743.01 ZM 615.00 749.04 L 615.00 764.00 L 585.17 764.00 C568.76,764.00 555.03,763.70 554.67,763.33 C554.30,762.97 554.00,745.86 554.00,725.32 L 554.00 687.97 L 613.50 688.50 L 613.50 703.50 L 593.71 703.77 L 573.91 704.04 L 574.21 711.27 L 574.50 718.50 L 610.00 719.05 L 610.00 734.16 L 573.92 733.50 L 574.50 748.50 ZM 512.43 743.00 L 504.18 763.50 L 494.64 763.79 L 485.09 764.07 L 483.46 760.93 C482.57,759.20 479.68,752.09 477.04,745.14 C474.40,738.19 468.36,722.84 463.62,711.02 C458.88,699.21 455.00,689.20 455.00,688.77 C455.00,688.35 459.64,688.00 465.32,688.00 L 475.64 688.00 L 480.74 702.75 C490.38,730.66 494.50,741.99 495.00,741.98 C495.27,741.97 498.57,733.09 502.33,722.23 C506.09,711.38 510.35,699.24 511.81,695.25 L 514.45 688.00 L 524.33 688.00 C531.83,688.00 534.10,688.30 533.73,689.25 C527.20,705.97 518.96,726.76 512.43,743.00 ZM 648.79 605.53 C655.26,607.31 666.43,607.30 673.30,605.51 C701.06,598.28 717.61,571.26 711.84,542.56 L 710.68 536.79 L 703.09 537.50 C698.92,537.88 695.37,538.33 695.20,538.48 C695.04,538.63 695.44,540.86 696.08,543.42 C698.26,552.05 694.76,564.59 688.04,572.22 C683.50,577.37 674.69,582.32 667.32,583.87 C663.03,584.76 659.15,584.53 644.82,582.50 C635.29,581.15 625.08,579.59 622.11,579.02 C619.15,578.46 616.10,578.00 615.34,578.00 C612.86,578.00 616.80,584.00 624.06,591.26 C631.00,598.21 639.02,602.84 648.79,605.53 ZM 770.50 737.50 L 769.50 763.50 L 751.00 764.08 L 751.00 740.09 L 737.00 714.96 C729.30,701.15 723.00,689.43 723.00,688.92 C723.00,688.41 727.21,688.00 732.36,688.00 L 741.72 688.00 L 747.50 698.25 C750.68,703.89 754.86,711.10 756.79,714.27 L 760.31 720.03 L 768.64 704.77 C773.23,696.37 777.10,689.14 777.25,688.71 C777.40,688.28 781.89,688.05 787.22,688.21 L 796.92 688.50 L 783.71 713.00 ZM 359.50 324.39 C362.25,325.69 364.78,326.46 365.13,326.12 C366.21,325.06 374.00,306.83 374.00,305.37 C374.00,304.62 373.36,304.00 372.59,304.00 C371.81,304.00 370.01,302.62 368.59,300.92 C366.67,298.64 366.00,296.72 366.00,293.48 C366.00,289.63 366.46,288.73 369.90,285.84 L 373.80 282.57 L 370.65 280.20 C363.96,275.18 345.19,266.91 337.50,265.58 C335.30,265.20 332.71,264.66 331.75,264.38 C330.12,263.90 330.00,265.39 330.00,285.93 C330.00,302.87 330.29,308.02 331.25,308.10 C331.94,308.15 334.21,308.11 336.30,308.02 C338.46,307.92 341.22,308.57 342.67,309.52 C344.92,311.00 345.18,311.72 344.76,315.47 L 344.27 319.74 L 349.39 320.89 C352.20,321.53 356.75,323.10 359.50,324.39 ZM 692.50 418.22 C695.80,420.21 699.12,421.64 699.88,421.40 C700.64,421.16 708.44,415.23 717.22,408.23 L 733.18 395.50 L 711.04 395.23 L 688.91 394.96 L 672.11 408.32 L 679.30 411.46 C683.26,413.18 689.20,416.23 692.50,418.22 ZM 659.48 727.14 C660.53,728.19 678.66,726.68 681.33,725.31 C687.64,722.09 688.58,711.76 683.02,706.75 C680.10,704.12 679.52,704.00 669.48,704.00 L 659.00 704.00 L 659.00 715.33 C659.00,721.57 659.21,726.88 659.48,727.14 ZM 313.00 306.00 C314.11,307.11 316.33,308.00 318.00,308.00 L 321.00 308.00 L 321.00 264.00 L 317.57 264.00 C311.30,264.00 311.00,264.99 311.00,285.57 C311.00,302.67 311.14,304.14 313.00,306.00 ZM 731.19 450.18 L 737.50 457.86 L 737.78 442.29 C737.93,433.72 737.90,426.57 737.71,426.38 C736.36,425.03 713.90,431.19 714.06,432.87 C714.09,433.22 716.54,435.52 719.50,438.00 C722.45,440.48 727.71,445.96 731.19,450.18 ZM 747.00 427.00 L 747.00 459.00 L 750.94 459.00 C753.11,459.00 755.22,458.45 755.63,457.79 C756.77,455.95 756.99,430.84 755.89,428.79 C755.21,427.53 753.75,427.00 750.96,427.00 Z" fill="rgb(26,36,57)"/>
<path d="M 384.20 570.00 C380.19,568.93 374.13,566.59 370.73,564.78 C363.15,560.75 348.83,547.24 338.28,534.17 C329.50,523.30 314.00,502.43 314.00,501.48 C314.00,501.25 313.40,500.18 312.53,498.80 C312.72,499.08 312.90,499.36 313.09,499.63 C315.82,503.69 318.20,507.00 318.37,507.00 C318.53,507.00 316.23,501.94 313.24,495.75 C294.30,456.53 291.67,437.00 301.96,412.12 C305.71,403.06 338.01,344.06 345.37,332.84 C347.32,329.87 346.98,329.44 341.99,328.58 C339.74,328.19 338.94,328.07 337.18,330.38 C338.01,329.09 338.54,328.27 338.67,328.10 C338.83,327.88 342.01,328.45 345.73,329.37 C353.75,331.35 364.81,336.33 365.56,338.30 C365.86,339.07 364.07,345.96 361.59,353.60 C350.79,386.87 348.09,399.34 347.31,419.59 C346.45,441.76 349.34,458.94 357.60,480.71 C368.19,508.62 383.01,525.13 403.22,531.51 C410.64,533.85 412.42,534.00 433.42,534.00 C458.76,534.00 463.60,533.35 473.75,528.54 C482.82,524.24 489.32,517.81 494.36,508.18 C505.65,486.57 505.73,463.77 494.60,438.58 C489.13,426.21 484.26,412.40 485.08,411.59 C485.33,411.34 521.75,411.04 566.02,410.93 L 646.50 410.73 L 657.00 413.48 C693.85,423.11 724.77,448.81 743.66,485.52 C749.21,496.29 755.64,513.17 757.45,521.69 C758.10,524.71 757.96,524.91 754.82,525.41 C752.99,525.69 740.92,526.41 728.00,527.00 C715.08,527.59 692.80,528.72 678.50,529.52 C664.20,530.31 639.67,531.63 624.00,532.46 C608.33,533.28 581.21,534.71 563.75,535.65 C550.60,536.35 539.09,536.79 534.06,536.82 C534.84,536.75 535.84,536.59 537.11,536.38 L 540.72 535.78 L 541.34 527.14 C542.13,515.99 545.14,504.65 550.13,494.00 C565.13,461.95 598.67,441.64 636.50,441.71 C654.75,441.74 669.16,445.23 687.27,454.02 C697.29,458.88 698.05,458.36 689.76,452.19 C694.39,455.39 698.39,458.75 701.34,462.03 C706.01,467.22 708.72,468.14 711.43,465.43 C713.78,463.08 713.37,461.42 709.33,456.95 C700.20,446.84 676.77,432.85 661.00,428.09 C643.77,422.89 619.56,421.42 601.91,424.51 C573.99,429.39 550.60,444.38 536.49,466.45 C525.43,483.73 521.99,496.37 521.28,522.24 C521.26,522.87 521.24,523.49 521.22,524.08 C520.86,537.16 520.71,542.44 523.23,544.57 C524.93,546.01 527.85,546.01 532.75,546.00 C533.08,546.00 533.42,546.00 533.77,546.00 L 543.50 546.01 L 543.50 551.59 C543.50,557.03 543.38,557.28 538.91,560.87 C536.38,562.90 530.98,566.12 526.91,568.03 L 519.50 571.50 L 455.50 571.71 C395.08,571.91 391.09,571.82 384.20,570.00 ZM 650.40 382.60 L 647.00 379.20 L 647.00 296.00 L 676.00 296.00 L 676.00 274.00 L 677.00 274.00 L 677.00 292.30 C677.00,305.20 677.35,310.95 678.20,311.80 C678.91,312.51 682.34,313.00 686.63,313.00 L 686.94 313.00 C690.95,313.00 693.36,313.00 694.81,311.82 C697.04,310.02 697.03,305.47 697.12,293.93 C697.18,287.27 697.29,281.28 697.40,278.54 C697.41,278.98 697.43,279.47 697.46,280.00 C697.53,281.92 697.69,286.31 697.80,289.75 L 698.00 296.00 L 735.00 296.00 C735.01,306.14 735.17,310.23 737.26,311.89 C738.68,313.01 740.99,313.00 744.74,313.00 C744.96,313.00 745.19,313.00 745.42,313.00 L 745.78 313.00 C749.72,313.00 752.14,313.00 753.63,311.82 C755.90,310.02 756.00,305.46 756.00,293.93 L 756.00 296.00 L 786.00 296.00 L 786.00 328.47 C786.00,369.98 785.78,377.53 784.48,380.03 C783.99,380.99 783.62,381.79 783.08,382.46 C780.27,386.00 772.99,386.00 720.28,386.00 L 715.45 386.00 L 653.80 386.00 ZM 199.78 763.03 C192.75,764.03 164.80,764.22 162.25,763.29 C161.28,762.94 161.00,754.44 161.00,725.42 L 161.00 688.00 L 177.75 688.01 C186.96,688.01 197.43,688.48 201.00,689.04 C213.66,691.05 223.42,697.71 229.04,708.17 C232.13,713.94 232.47,715.40 232.83,724.71 C233.20,734.39 233.07,735.26 230.21,741.37 C224.68,753.18 213.60,761.07 199.78,763.03 ZM 331.48 552.89 C328.74,550.63 322.89,545.11 318.48,540.61 C308.44,530.38 296.30,521.09 285.68,515.51 C263.03,503.60 240.37,500.04 199.77,502.03 C194.49,502.29 189.58,502.48 185.70,502.59 C186.80,502.39 187.69,502.10 188.11,501.75 C188.94,501.06 191.58,497.88 193.98,494.68 C210.18,473.11 240.08,459.00 269.59,459.00 C274.76,459.00 279.00,458.80 279.00,458.55 C279.00,458.50 278.98,458.41 278.94,458.28 C279.26,458.97 279.60,459.74 279.98,460.61 C289.13,481.41 314.84,520.96 332.95,542.07 C338.17,548.15 338.56,548.94 338.19,552.82 C337.97,555.12 337.49,557.00 337.13,557.00 C336.76,557.00 334.22,555.15 331.48,552.89 ZM 317.00 756.50 L 317.00 764.00 L 286.97 764.00 C263.81,764.00 256.83,763.71 256.46,762.75 C256.19,762.06 256.09,745.07 256.24,725.00 L 256.50 688.50 L 316.08 687.97 L 315.50 703.50 L 276.50 703.87 L 276.21 710.93 C275.99,716.18 276.25,718.01 277.21,718.05 C277.92,718.07 285.28,718.05 293.56,718.00 C301.84,717.96 309.38,718.21 310.31,718.56 C311.67,719.09 312.00,720.55 312.00,726.11 L 312.00 733.00 L 276.00 733.00 L 276.00 748.85 L 294.75 748.86 C305.06,748.86 314.29,748.90 315.25,748.93 C316.76,748.99 317.00,750.05 317.00,756.50 ZM 392.39 762.42 C391.86,763.80 388.68,764.00 367.04,764.00 L 342.29 764.00 L 341.78 736.21 C341.51,720.93 341.51,703.83 341.78,698.21 L 342.27 688.00 L 361.00 688.00 L 361.00 747.00 L 391.75 747.00 L 392.38 750.12 C393.17,754.10 393.18,760.37 392.39,762.42 ZM 359.50 324.39 C356.75,323.10 352.20,321.53 349.39,320.89 L 344.27 319.74 L 344.76 315.47 C345.18,311.72 344.92,311.00 342.67,309.52 C341.22,308.57 338.46,307.92 336.30,308.02 C334.21,308.11 331.94,308.15 331.25,308.10 C330.29,308.02 330.00,302.87 330.00,285.93 C330.00,265.39 330.12,263.90 331.75,264.38 C332.71,264.66 335.30,265.20 337.50,265.58 C345.19,266.91 363.96,275.18 370.65,280.20 L 373.80 282.57 L 369.90 285.84 C366.46,288.73 366.00,289.63 366.00,293.48 C366.00,296.72 366.67,298.64 368.59,300.92 C370.01,302.62 371.81,304.00 372.59,304.00 C373.36,304.00 374.00,304.62 374.00,305.37 C374.00,306.83 366.21,325.06 365.13,326.12 C364.78,326.46 362.25,325.69 359.50,324.39 ZM 434.00 688.00 L 434.00 764.00 L 425.75 763.92 C421.21,763.88 416.94,763.62 416.25,763.34 C415.28,762.95 415.00,754.41 415.00,725.42 L 415.00 688.00 ZM 180.00 704.00 L 180.00 748.00 L 188.75 747.92 C197.47,747.85 201.77,746.85 205.58,744.00 C214.66,737.21 216.28,720.65 208.76,711.52 C204.13,705.90 199.17,704.05 188.75,704.02 ZM 731.19 450.18 C727.71,445.96 722.45,440.48 719.50,438.00 C716.54,435.52 714.09,433.22 714.06,432.87 C713.90,431.19 736.36,425.03 737.71,426.38 C737.90,426.57 737.93,433.72 737.78,442.29 L 737.50 457.86 ZM 180.89 495.30 C187.38,485.25 195.75,476.61 205.56,469.69 C201.35,472.78 197.24,476.30 193.16,480.30 C189.62,483.76 184.43,490.25 180.89,495.30 ZM 533.97 493.77 C536.54,484.89 540.35,476.74 545.31,469.47 C540.77,476.32 537.10,484.14 534.21,493.01 C534.13,493.26 534.05,493.51 533.97,493.77 ZM 786.00 279.85 L 786.00 287.92 C786.00,280.33 785.83,279.67 783.08,276.92 ZM 647.00 288.40 L 647.00 280.80 L 650.40 277.40 C647.13,280.67 647.00,281.09 647.00,288.40 ZM 310.93 496.39 C306.69,490.20 301.81,482.15 297.37,474.22 C301.47,481.46 306.15,489.14 310.93,496.39 ZM 234.16 455.77 C235.26,455.43 236.38,455.11 237.50,454.80 C239.55,454.25 242.69,453.73 246.31,453.30 C242.10,453.88 238.06,454.70 234.16,455.77 ZM 571.76 444.94 C574.32,443.44 577.00,442.06 579.78,440.80 C581.67,439.95 584.64,438.82 587.81,437.74 C582.00,439.77 576.65,442.17 571.76,444.94 ZM 258.38 452.26 C264.71,451.90 270.55,451.88 273.18,452.37 C274.34,452.59 275.16,452.82 275.87,453.36 C273.45,452.00 268.71,451.80 258.38,452.26 ZM 675.52 443.85 C668.09,440.25 659.75,437.02 653.00,435.30 C660.38,437.18 668.20,440.20 675.52,443.85 ZM 530.64 533.25 C531.03,535.60 531.25,536.59 532.52,536.82 C531.83,536.80 531.43,536.77 531.38,536.71 C531.03,536.37 530.76,534.90 530.57,532.77 C530.59,532.93 530.62,533.09 530.64,533.25 ZM 697.73 275.91 C697.79,275.58 697.84,275.25 697.88,275.00 C697.90,274.78 698.80,274.59 700.45,274.43 C699.03,274.69 698.25,275.10 697.83,275.74 C697.80,275.79 697.76,275.85 697.73,275.91 ZM 325.65 348.66 C323.83,351.58 322.01,354.51 320.46,357.00 C316.52,363.33 307.13,378.40 299.60,390.49 C307.13,378.40 316.51,363.33 320.44,357.00 C322.02,354.46 323.82,351.59 325.65,348.66 ZM 530.71 510.75 C530.78,509.97 530.86,509.22 530.95,508.52 C531.25,506.07 531.65,503.66 532.13,501.30 C531.54,504.30 531.06,507.51 530.71,510.75 ZM 177.75 502.65 C177.44,502.63 177.27,502.60 177.23,502.57 C177.20,502.54 177.19,502.48 177.19,502.40 C177.32,502.49 177.51,502.58 177.75,502.65 Z" fill="rgb(108,190,209)"/>
<path d="M 0.00 480.00 L 0.00 0.00 L 480.00 0.00 L 960.00 0.00 L 960.00 480.00 L 960.00 960.00 L 480.00 960.00 L 0.00 960.00 L 0.00 480.00 ZM 199.78 763.03 C213.60,761.07 224.68,753.18 230.21,741.37 C233.07,735.26 233.20,734.39 232.83,724.71 C232.47,715.40 232.13,713.94 229.04,708.17 C223.42,697.71 213.66,691.05 201.00,689.04 C197.43,688.48 186.96,688.01 177.75,688.01 L 161.00 688.00 L 161.00 725.42 C161.00,754.44 161.28,762.94 162.25,763.29 C164.80,764.22 192.75,764.03 199.78,763.03 ZM 317.00 756.50 C317.00,750.05 316.76,748.99 315.25,748.93 C314.29,748.90 305.06,748.86 294.75,748.86 L 276.00 748.85 L 276.00 740.92 L 276.00 733.00 L 294.00 733.00 L 312.00 733.00 L 312.00 726.11 C312.00,720.55 311.67,719.09 310.31,718.56 C309.38,718.21 301.84,717.96 293.56,718.00 C285.28,718.05 277.92,718.07 277.21,718.05 C276.25,718.01 275.99,716.18 276.21,710.93 L 276.50 703.87 L 296.00 703.68 L 315.50 703.50 L 315.79 695.74 L 316.08 687.97 L 286.29 688.24 L 256.50 688.50 L 256.24 725.00 C256.09,745.07 256.19,762.06 256.46,762.75 C256.83,763.71 263.81,764.00 286.97,764.00 L 317.00 764.00 L 317.00 756.50 ZM 392.39 762.42 C393.18,760.37 393.17,754.10 392.38,750.12 L 391.75 747.00 L 376.38 747.00 L 361.00 747.00 L 361.00 717.50 L 361.00 688.00 L 351.63 688.00 L 342.27 688.00 L 341.78 698.21 C341.51,703.83 341.51,720.93 341.78,736.21 L 342.29 764.00 L 367.04 764.00 C388.68,764.00 391.86,763.80 392.39,762.42 ZM 434.00 726.00 L 434.00 688.00 L 424.50 688.00 L 415.00 688.00 L 415.00 725.42 C415.00,754.41 415.28,762.95 416.25,763.34 C416.94,763.62 421.21,763.88 425.75,763.92 L 434.00 764.00 L 434.00 726.00 ZM 512.43 743.00 C518.96,726.76 527.20,705.97 533.73,689.25 C534.10,688.30 531.83,688.00 524.33,688.00 L 514.45 688.00 L 511.81 695.25 C510.35,699.24 506.09,711.38 502.33,722.23 C498.57,733.09 495.27,741.97 495.00,741.98 C494.50,741.99 490.38,730.66 480.74,702.75 L 475.64 688.00 L 465.32 688.00 C459.64,688.00 455.00,688.35 455.00,688.77 C455.00,689.20 458.88,699.21 463.62,711.02 C468.36,722.84 474.40,738.19 477.04,745.14 C479.68,752.09 482.57,759.20 483.46,760.93 L 485.09 764.07 L 494.64 763.79 L 504.18 763.50 L 512.43 743.00 ZM 615.00 756.52 L 615.00 749.04 L 594.75 748.77 L 574.50 748.50 L 574.21 741.00 L 573.92 733.50 L 591.96 733.83 L 610.00 734.16 L 610.00 726.60 L 610.00 719.05 L 592.25 718.77 L 574.50 718.50 L 574.21 711.27 L 573.91 704.04 L 593.71 703.77 L 613.50 703.50 L 613.50 696.00 L 613.50 688.50 L 583.75 688.24 L 554.00 687.97 L 554.00 725.32 C554.00,745.86 554.30,762.97 554.67,763.33 C555.03,763.70 568.76,764.00 585.17,764.00 L 615.00 764.00 L 615.00 756.52 ZM 659.00 753.50 L 659.00 743.00 L 666.75 743.01 L 674.50 743.02 L 679.89 753.51 L 685.29 764.00 L 696.14 764.00 C702.11,764.00 706.99,763.66 706.98,763.25 C706.97,762.84 703.63,757.34 699.55,751.04 L 692.14 739.57 L 696.10 736.18 C701.35,731.69 704.16,725.92 704.76,718.40 C705.44,709.93 703.60,703.07 699.31,698.05 C692.28,689.84 684.80,688.05 657.25,688.02 L 640.00 688.00 L 640.00 726.00 L 640.00 764.00 L 649.50 764.00 L 659.00 764.00 L 659.00 753.50 ZM 770.00 750.50 L 770.50 737.50 L 783.71 713.00 L 796.92 688.50 L 787.22 688.21 C781.89,688.05 777.40,688.28 777.25,688.71 C777.10,689.14 773.23,696.37 768.64,704.77 L 760.31 720.03 L 756.79 714.27 C754.86,711.10 750.68,703.89 747.50,698.25 L 741.72 688.00 L 732.36 688.00 C727.21,688.00 723.00,688.41 723.00,688.92 C723.00,689.43 729.30,701.15 737.00,714.96 L 751.00 740.09 L 751.00 752.08 L 751.00 764.08 L 760.25 763.79 L 769.50 763.50 L 770.00 750.50 ZM 797.55 640.57 C798.79,638.67 798.90,637.67 798.04,636.07 C796.94,634.02 796.48,634.00 743.96,634.00 C714.83,634.00 691.00,633.66 691.00,633.25 C691.01,632.84 693.06,631.66 695.57,630.62 C702.84,627.63 714.98,619.23 721.17,612.91 C731.64,602.21 738.74,589.82 742.60,575.50 C744.48,568.55 745.23,549.32 744.00,539.50 L 743.50 535.50 L 753.65 535.00 C766.81,534.35 768.49,533.14 767.50,525.02 C766.15,514.02 756.20,488.01 748.13,474.37 L 745.10 469.24 L 750.59 468.78 C756.41,468.30 759.90,466.36 763.44,461.62 C765.27,459.16 765.53,457.18 765.80,443.68 C766.05,430.64 765.84,428.02 764.30,425.07 C760.83,418.46 758.87,417.78 743.36,417.76 C732.09,417.74 728.32,418.12 723.20,419.78 C719.73,420.90 717.04,421.37 717.23,420.82 C717.41,420.27 724.52,414.25 733.03,407.45 L 748.50 395.08 L 763.00 395.03 C779.14,394.98 783.47,394.16 788.11,390.25 C795.03,384.43 794.96,385.07 794.96,330.00 C794.96,284.26 794.82,280.20 793.14,276.49 C790.84,271.44 785.03,266.28 780.77,265.50 C778.97,265.18 749.08,265.04 714.34,265.20 L 651.17 265.50 L 646.91 268.50 C644.57,270.15 641.61,273.48 640.33,275.91 L 638.00 280.31 L 638.02 329.41 C638.05,384.40 637.90,383.19 645.32,389.70 C650.00,393.82 654.44,394.99 665.40,394.99 L 674.30 395.00 L 667.62 400.06 C662.41,404.00 660.45,404.96 658.72,404.41 C657.50,404.02 652.00,402.96 646.50,402.06 L 636.50 400.43 L 635.86 391.46 C634.52,372.73 631.76,365.20 624.98,361.71 C620.64,359.48 617.50,359.85 597.50,365.02 C569.79,372.18 569.47,372.22 524.50,372.89 C484.36,373.49 483.40,373.55 478.83,375.80 C472.29,379.02 466.47,385.66 464.57,392.09 C462.71,398.34 462.51,408.11 464.20,409.80 C464.86,410.46 467.78,411.00 470.68,411.00 C475.64,411.00 476.00,411.17 476.53,413.75 C477.80,419.89 482.06,432.13 485.87,440.59 C493.52,457.58 495.59,471.97 492.57,487.04 C489.51,502.27 482.48,513.77 472.84,519.30 C464.08,524.33 458.29,525.26 435.00,525.39 C416.75,525.48 412.59,525.22 407.50,523.66 C398.01,520.75 392.46,517.20 384.70,509.07 C373.92,497.78 365.44,480.17 359.38,456.50 C356.73,446.18 356.56,444.24 356.57,425.00 L 356.59 404.50 L 361.25 387.00 C363.82,377.38 367.12,365.67 368.59,361.00 C374.86,340.98 375.36,338.52 373.84,335.39 C372.51,332.67 372.71,331.87 377.06,322.00 C379.61,316.23 381.97,310.71 382.31,309.75 C383.18,307.31 386.73,307.55 393.40,310.50 C404.06,315.21 411.00,312.64 411.00,303.97 C411.00,298.47 407.56,295.09 398.74,291.93 C394.51,290.42 391.76,288.83 391.40,287.69 C391.08,286.69 388.31,283.35 385.24,280.28 L 379.65 274.69 L 381.90 260.60 C384.54,244.06 385.36,241.07 388.06,238.16 C391.22,234.77 392.00,235.54 392.00,242.05 C392.00,247.10 392.39,248.49 394.41,250.50 C399.42,255.51 406.04,254.53 408.60,248.40 C409.84,245.44 410.00,241.72 409.48,227.65 C409.14,218.22 408.37,209.51 407.78,208.30 C406.19,205.01 401.58,203.73 397.50,205.44 C393.02,207.31 392.00,209.60 392.00,217.78 L 392.00 224.70 L 387.85 226.57 C379.87,230.17 375.24,240.21 372.91,259.00 C372.26,264.23 371.64,268.62 371.52,268.76 C371.41,268.90 366.87,266.93 361.43,264.39 C348.38,258.29 335.17,254.96 323.00,254.70 C311.97,254.47 307.32,256.12 304.02,261.47 C302.16,264.47 302.00,266.43 302.00,285.72 C302.00,305.83 302.09,306.84 304.25,310.05 C308.15,315.83 312.21,317.48 323.00,317.65 C328.23,317.73 332.71,317.96 332.97,318.15 C333.76,318.74 316.67,346.73 290.18,388.22 C275.40,411.38 273.52,416.29 273.51,431.75 L 273.50 443.00 L 261.84 443.00 C231.63,443.00 204.51,454.61 184.67,476.04 C175.38,486.07 165.00,502.22 165.00,506.63 C165.00,510.43 167.96,512.00 175.15,512.00 C178.92,512.00 182.00,512.17 182.00,512.39 C182.00,512.60 180.66,515.64 179.02,519.14 C171.98,534.19 169.33,554.67 172.44,570.03 C177.95,597.19 193.16,617.27 217.19,629.08 C220.88,630.89 223.66,632.74 223.38,633.19 C223.11,633.63 209.46,634.00 193.05,634.00 C166.77,634.00 163.14,634.19 162.61,635.58 C161.52,638.41 161.96,640.88 163.75,641.92 C164.93,642.61 268.47,642.95 480.73,642.97 L 795.95 643.00 L 797.55 640.57 ZM 180.00 726.00 L 180.00 704.00 L 188.75 704.02 C199.17,704.05 204.13,705.90 208.76,711.52 C216.28,720.65 214.66,737.21 205.58,744.00 C201.77,746.85 197.47,747.85 188.75,747.92 L 180.00 748.00 L 180.00 726.00 ZM 659.48 727.14 C659.21,726.88 659.00,721.57 659.00,715.33 L 659.00 704.00 L 669.48 704.00 C679.52,704.00 680.10,704.12 683.02,706.75 C688.58,711.76 687.64,722.09 681.33,725.31 C678.66,726.68 660.53,728.19 659.48,727.14 ZM 285.00 633.25 C285.01,632.84 286.92,631.71 289.26,630.75 C297.08,627.54 306.42,620.73 315.17,611.89 C322.30,604.68 324.70,601.39 328.75,593.31 C331.45,587.91 334.46,580.23 335.44,576.24 C336.88,570.36 337.58,569.00 339.15,569.00 C342.16,569.00 346.00,564.54 346.00,561.05 C346.00,559.37 346.26,558.00 346.59,558.00 C346.91,558.00 350.75,560.86 355.12,564.36 C364.26,571.67 372.65,576.04 383.72,579.24 C391.42,581.48 392.12,581.50 453.50,581.50 C510.46,581.50 516.02,581.35 521.92,579.68 C529.82,577.44 538.13,573.31 544.43,568.50 C548.90,565.09 549.30,564.97 551.02,566.52 C552.09,567.48 556.72,568.78 562.17,569.64 C579.35,572.36 578.10,571.74 580.05,578.52 C586.48,600.81 604.28,621.40 624.52,629.94 C628.08,631.44 630.70,632.97 630.33,633.33 C629.41,634.26 285.00,634.18 285.00,633.25 ZM 240.94 604.66 C222.39,599.16 209.31,585.79 204.53,567.45 C199.98,549.97 205.44,531.49 219.25,517.68 L 226.22 510.71 L 236.86 511.28 C247.01,511.82 260.00,514.12 262.82,515.88 C263.82,516.51 262.03,521.05 255.15,535.30 C250.21,545.54 245.88,554.81 245.53,555.90 C244.78,558.27 247.25,563.50 249.54,564.38 C252.96,565.69 258.01,564.99 260.08,562.92 C261.23,561.77 263.87,557.16 265.96,552.67 C275.69,531.69 280.01,523.00 280.73,523.00 C282.00,523.01 293.15,529.92 298.58,534.08 C302.92,537.41 303.82,538.71 304.83,543.06 C308.86,560.55 303.64,579.03 291.20,591.27 C276.79,605.46 259.35,610.11 240.94,604.66 ZM 648.79 605.53 C639.02,602.84 631.00,598.21 624.06,591.26 C616.80,584.00 612.86,578.00 615.34,578.00 C616.10,578.00 619.15,578.46 622.11,579.02 C625.08,579.59 635.29,581.15 644.82,582.50 C659.15,584.53 663.03,584.76 667.32,583.87 C674.69,582.32 683.50,577.37 688.04,572.22 C694.76,564.59 698.26,552.05 696.08,543.42 C695.44,540.86 695.04,538.63 695.20,538.48 C695.37,538.33 698.92,537.88 703.09,537.50 L 710.68 536.79 L 711.84 542.56 C717.61,571.26 701.06,598.28 673.30,605.51 C666.43,607.30 655.26,607.31 648.79,605.53 ZM 530.64 533.25 C528.94,522.97 530.62,504.01 534.21,493.01 C544.21,462.32 563.59,444.15 595.82,435.24 C604.74,432.77 606.96,432.56 624.00,432.60 C640.70,432.63 643.52,432.89 653.00,435.30 C664.64,438.27 680.98,445.71 689.22,451.79 C698.07,458.33 697.51,458.98 687.27,454.02 C669.16,445.23 654.75,441.74 636.50,441.71 C598.67,441.64 565.13,461.95 550.13,494.00 C545.14,504.65 542.13,515.99 541.34,527.14 L 540.72 535.78 L 537.11 536.38 C531.48,537.31 531.30,537.23 530.64,533.25 ZM 313.09 499.63 C300.95,481.64 288.94,460.05 284.93,449.00 C281.95,440.79 281.62,426.42 284.22,417.99 C285.21,414.78 291.62,403.31 299.60,390.49 C307.13,378.40 316.52,363.33 320.46,357.00 C324.40,350.67 330.07,341.56 333.06,336.74 C338.48,328.01 338.51,327.98 341.99,328.58 C346.98,329.44 347.32,329.87 345.37,332.84 C338.01,344.06 305.71,403.06 301.96,412.12 C291.67,437.00 294.30,456.53 313.24,495.75 C316.23,501.94 318.53,507.00 318.37,507.00 C318.20,507.00 315.82,503.69 313.09,499.63 ZM 177.00 502.08 C177.00,499.93 187.33,486.00 193.16,480.30 C211.85,462.00 231.22,453.52 257.11,452.31 C272.60,451.59 276.30,452.17 277.85,455.56 C278.48,456.96 279.00,458.30 279.00,458.55 C279.00,458.80 274.76,459.00 269.59,459.00 C240.08,459.00 210.18,473.11 193.98,494.68 C191.58,497.88 188.94,501.06 188.11,501.75 C186.40,503.18 177.00,503.47 177.00,502.08 ZM 747.00 443.00 L 747.00 427.00 L 750.96 427.00 C753.75,427.00 755.21,427.53 755.89,428.79 C756.99,430.84 756.77,455.95 755.63,457.79 C755.22,458.45 753.11,459.00 750.94,459.00 L 747.00 459.00 L 747.00 443.00 ZM 692.50 418.22 C689.20,416.23 683.26,413.18 679.30,411.46 L 672.11 408.32 L 680.51 401.64 L 688.91 394.96 L 711.04 395.23 L 733.18 395.50 L 717.22 408.23 C708.44,415.23 700.64,421.16 699.88,421.40 C699.12,421.64 695.80,420.21 692.50,418.22 ZM 313.00 306.00 C311.14,304.14 311.00,302.67 311.00,285.57 C311.00,264.99 311.30,264.00 317.57,264.00 L 321.00 264.00 L 321.00 286.00 L 321.00 308.00 L 318.00 308.00 C316.33,308.00 314.11,307.11 313.00,306.00 ZM 647.00 288.40 C647.00,281.09 647.13,280.67 650.40,277.40 L 653.80 274.00 L 664.90 274.00 L 676.00 274.00 L 676.00 285.00 L 676.00 296.00 L 661.50 296.00 L 647.00 296.00 L 647.00 288.40 ZM 697.80 289.75 C697.69,286.31 697.53,281.92 697.46,280.00 C697.21,273.81 696.59,274.00 716.61,274.00 L 735.00 274.00 L 735.00 285.00 L 735.00 296.00 L 716.50 296.00 L 698.00 296.00 L 697.80 289.75 ZM 756.00 285.00 L 756.00 274.00 L 768.08 274.00 C780.09,274.00 780.17,274.02 783.08,276.92 C785.83,279.67 786.00,280.33 786.00,287.92 L 786.00 296.00 L 771.00 296.00 L 756.00 296.00 L 756.00 285.00 Z" fill="rgb(243,243,243)"/>
</g>
</svg>